<?xml version="1.0" standalone="no"?>
<svg
		version="1.1"
		xmlns="http://www.w3.org/2000/svg"
		xmlns:xlink="http://www.w3.org/1999/xlink"
		viewBox="0 0 342 308"
		height="100%"
		width="100%"
		preserveAspectRatio="none"
>
	<g
			transform="translate(-138, -149)"
	>
		<path fill="#FD0515" d="M467.085,202.741c-14.27-37.32-51.34-53.785-90.008-53.785c-49.811,0-68.055,62.566-68.055,62.566&#10;&#9;&#9;&#9;&#9;s-18.244-62.566-68.055-62.566c-38.668,0-75.738,16.465-90.008,53.785c-14.27,37.32-24.148,93.301,17.562,133.914&#10;&#9;&#9;&#9;&#9;c41.712,40.614,95.806,69.908,115.254,87.812c21.459,19.756,25.246,31.832,25.246,31.832s3.787-12.076,25.246-31.832&#10;&#9;&#9;&#9;&#9;c19.448-17.905,73.543-47.199,115.254-87.812C491.233,296.042,481.354,240.062,467.085,202.741z"/>
	</g>
</svg>