<?xml version="1.0" standalone="no"?>
<svg
		version="1.1"
		xmlns="http://www.w3.org/2000/svg"
		xmlns:xlink="http://www.w3.org/1999/xlink"
		viewBox="0 0 285 304"
		height="100%"
		width="100%"
		preserveAspectRatio="none"
>
	<g
			transform="translate(-165.7, -745)"
	>
		<path fill="#231F20" d="M376.566,988.481c40.953,0,74.152-33.199,74.152-74.152c0-39.955-31.625-72.439-71.198-74.003&#10;&#9;&#9;&#9;&#9;c1.936-6.617,3.023-13.597,3.023-20.84c0-40.953-33.199-74.152-74.153-74.152c-0.058,0-0.113,0.008-0.171,0.008&#10;&#9;&#9;&#9;&#9;c-0.058,0-0.114-0.008-0.171-0.008c-40.953,0-74.153,33.199-74.153,74.152c0,7.242,1.086,14.223,3.023,20.84&#10;&#9;&#9;&#9;&#9;c-39.573,1.563-71.198,34.047-71.198,74.003c0,40.953,33.199,74.152,74.152,74.152c25.906,0,48.678-13.305,61.938-33.432&#10;&#9;&#9;&#9;&#9;l-0.046,1.546c-6.285,59.07-83.579,92.816-83.579,92.816h89.863h0.343h89.863c0,0-77.294-33.746-83.579-92.816l-0.046-1.546&#10;&#9;&#9;&#9;&#9;C327.888,975.176,350.66,988.481,376.566,988.481z"/>
	</g>
</svg>