<?xml version="1.0" standalone="no"?>
<svg
		version="1.1"
		xmlns="http://www.w3.org/2000/svg"
		xmlns:xlink="http://www.w3.org/1999/xlink"
		viewBox="0 0 274.4 308"
		height="100%"
		width="100%"
		preserveAspectRatio="none"
>
	<g
			transform="translate(-753, -148)"
	>
		<path fill="#231F20" d="M984.517,241.354c-45.713-38.904-91.425-72.945-94.343-92.398c-2.918,19.452-48.631,53.493-94.343,92.398&#10;&#9;&#9;&#9;&#9;c-45.713,38.904-52.52,72.945-31.123,108.932c18.928,31.834,42.238,42.122,70.58,37.989&#10;&#9;&#9;&#9;&#9;c17.694-2.581,48.078-35.071,48.078-35.071c-6.808,65.165-81.699,103.096-81.699,103.096h88.507h88.507&#10;&#9;&#9;&#9;&#9;c0,0-74.89-37.932-81.699-103.096c0,0,30.384,32.49,48.078,35.071c28.342,4.133,51.652-6.155,70.58-37.989&#10;&#9;&#9;&#9;&#9;C1037.037,314.299,1030.229,280.258,984.517,241.354z"/>
	</g>
</svg>